# AST/ASF file generated using VICON BodyLanguage
# -----------------------------------------------
:version 1.10
:name VICON
:units
  mass 1.0
  length 0.45
  angle deg
:documentation
   .ast/.asf automatically generated from VICON data using
   VICON BodyBuilder and BodyLanguage model FoxedUp or BRILLIANT.MOD
:root
   order TX TY TZ RX RY RZ
   axis XYZ
   position 0 0 0  
   orientation 0 0 0 
:bonedata
  begin
     id 1 
     name lhipjoint
     direction 0.561001 -0.76473 0.316963 
     length 2.4722 
     axis 0 0 0  XYZ
  end
  begin
     id 2 
     name lfemur
     direction 0.34202 -0.939693 0  
     length 7.59403  
     axis 0 0 20  XYZ
    dof rx ry rz
    limits (-160.0 20.0)
           (-70.0 70.0)
           (-60.0 70.0)
  end
  begin
     id 3 
     name ltibia
     direction 0.34202 -0.939693 0   
     length 7.89655   
     axis 0 0 20   XYZ
    dof rx
    limits (-10.0 170.0)
  end
  begin
     id 4 
     name lfoot
     direction 0.061296 -0.168409 0.98381   
     length 2.73287   
     axis -90 7.62852e-016 20   XYZ
    dof rx rz
    limits (-45.0 90.0)
           (-70.0 20.0)
  end
  begin
     id 5 
     name ltoes
     direction 1.53547e-011 -4.21984e-011 1   
     length 1.37057   
     axis -90 7.62852e-016 20   XYZ
    dof rx
    limits (-90.0 20.0)
  end
  begin
     id 6 
     name rhipjoint
     direction -0.559611 -0.765599 0.317323   
     length 2.46939  
     axis 0 0 0  XYZ 
  end
  begin
     id 7 
     name rfemur
     direction -0.34202 -0.939693 0   
     length 7.53712   
     axis 0 0 -20   XYZ
    dof rx ry rz
    limits (-160.0 20.0)
           (-70.0 70.0)
           (-70.0 60.0)
  end
  begin
     id 8 
     name rtibia
     direction -0.34202 -0.939693 0   
     length 8.12549   
     axis 0 0 -20   XYZ
    dof rx
    limits (-10.0 170.0)
 end
 begin
     id 9 
     name rfoot
     direction -0.066984 -0.184037 0.980634   
     length 2.67541  
     axis -90 -7.62852e-016 -20   XYZ
    dof rx rz
    limits (-45.0 90.0)
           (-20.0 70.0)
  end
  begin
     id 10 
     name rtoes
     direction -1.53549e-011 -4.21786e-011 1   
     length 1.34085   
     axis -90 -7.62852e-016 -20   XYZ
    dof rx
    limits (-90.0 20.0)
  end
  begin
     id 11 
     name lowerback
     direction -0.0522728 0.992594 -0.109658   
     length 2.05633   
     axis 0 0 0   XYZ
    dof rx ry rz
    limits (-20.0 45.0)
           (-30.0 30.0)
           (-30.0 30.0)
  end
  begin
     id 12 
     name upperback
     direction 0.00589338 0.999977 0.00335704   
     length 2.05845   
     axis 0 0 0   XYZ
    dof rx ry rz
    limits (-20.0 45.0)
           (-30.0 30.0)
           (-30.0 30.0)
  end
  begin
     id 13 
     name thorax
     direction 0.0292928 0.998059 0.0549487   
     length 2.09281   
     axis 0 0 0   XYZ
    dof rx ry rz
    limits (-20.0 45.0)
           (-30.0 30.0)
           (-30.0 30.0)
  end
  begin
     id 14 
     name lowerneck
     direction 0.0356368 0.980775 0.191858   
     length 1.84767   
     axis 0 0 0   XYZ
    dof rx ry rz
    limits (-20.0 45.0)
           (-30.0 30.0)
           (-30.0 30.0)
  end
  begin
     id 15 
     name upperneck
     direction -0.0227605 0.98931 -0.14404   
     length 1.89582   
     axis 0 0 0   XYZ
    dof rx ry rz
    limits (-20.0 45.0)
           (-30.0 30.0)
           (-30.0 30.0)
  end
  begin
     id 16
     name head
     direction -0.00932985 0.997511 -0.0698904  
     length 1.90213  
     axis 0 0 0   XYZ
    dof rx ry rz
    limits (-20.0 45.0)
           (-30.0 30.0)
           (-30.0 30.0)
  end
  begin
     id 17 
     name lclavicle
     direction 0.873442 0.479511 0.0846686  
     length 3.41193  
     axis 0 0 0   XYZ
    dof ry rz
    limits (-20.0 10.0)
           (0.0 20.0)
  end
  begin
     id 18 
     name lhumerus
     direction 1 -4.4897e-011 -5.62117e-018   
     length 5.59864   
     axis 180 -30 -90   XYZ
    dof rx ry rz
    limits (-60.0 90.0)
           (-90.0 90.0)
           (-90.0 90.0)
  end
  begin
     id 19
     name lradius
     direction 1 -4.48966e-011 -6.26295e-027   
     length 3.59542   
     axis 180 -30 -90   XYZ
    dof rx
    limits (-10.0 170.0)
  end
  begin
     id 20
     name lwrist
     direction 1 -4.48947e-011 -1.74096e-026   
     length 1.79771   
     axis 1.04567e-014 90 90   XYZ
    dof ry
    limits (-180.0 0.0)
 end
  begin
     id 21 
     name lhand
     direction 1 -4.49085e-011 -3.48469e-026   
     length 0.572014   
     axis 2.22196e-014 90 90   XYZ
    dof rx rz
    limits (-90.0 90.0)
           (-45.0 45.0)
  end
  begin
     id 22 
     name lfingers
     direction 1 -4.48884e-011 -6.96135e-026   
     length 0.461173   
     axis 4.44383e-014 90 90   XYZ
    dof rx
    limits (0.0 90.0)
  end
  begin
     id 23
     name lthumb
     direction 0.707107 -6.34976e-011 0.707107   
     length 0.662154   
     axis -90 45 -5.4397e-014   XYZ
    dof rx rz
    limits (-45.0 45.0)
           (-45.0 45.0)
  end
  begin
     id 24 
     name rclavicle
     direction -0.890242 0.443271 0.104786   
     length 3.46753  
     axis 0 0 0   XYZ 
    dof ry rz
    limits (-10.0 20.0)
           (-20.0 0.0)
  end
  begin
     id 25 
     name rhumerus
     direction -1 -4.48963e-011 -5.41723e-018  
     length 5.8094   
     axis 180 30 90   XYZ
    dof rx ry rz
    limits (-90.0 60.0)
           (-90.0 90.0)
           (-90.0 90.0)
  end
  begin
     id 26 
     name rradius
     direction -1 -4.48958e-011 -6.51059e-027   
     length 3.66953   
     axis 180 30 90   XYZ
    dof rx
    limits (-10.0 170.0)
  end
  begin
     id 27 
     name rwrist
     direction -1 -4.48975e-011 -1.74124e-026   
     length 1.83476   
     axis 1.04567e-014 -90 -90   XYZ
    dof ry
    limits (-180.0 0.0)
  end
  begin
     id 28
     name rhand
     direction -1 -4.49013e-011 -3.48326e-026   
     length 0.57843   
     axis 2.22196e-014 -90 -90   XYZ
    dof rx rz
    limits (-90.0 90.0)
           (-45.0 45.0)
  end
  begin
     id 29
     name rfingers
     direction -1 -4.49023e-011 -6.9669e-026   
     length 0.466345   
     axis 4.44383e-014 -90 -90   XYZ
    dof rx
    limits (0.0 90.0)
  end
  begin
     id 30
     name rthumb
     direction -0.707107 -6.34926e-011 0.707107   
     length 0.669581   
     axis -90 -45 5.4397e-014   XYZ
    dof rx rz
    limits (-45.0 45.0)
           (-45.0 45.0)
  end
:hierarchy
  begin
    root lhipjoint rhipjoint lowerback
    lhipjoint lfemur
    lfemur ltibia
    ltibia lfoot
    lfoot ltoes
    rhipjoint rfemur
    rfemur rtibia
    rtibia rfoot
    rfoot rtoes
    lowerback upperback
    upperback thorax
    thorax lowerneck lclavicle rclavicle
    lowerneck upperneck
    upperneck head
    lclavicle lhumerus
    lhumerus lradius
    lradius lwrist
    lwrist lhand lthumb
    lhand lfingers
    rclavicle rhumerus
    rhumerus rradius
    rradius rwrist
    rwrist rhand rthumb
    rhand rfingers
  end

#!OML:ASF H:\SkateBoarding\Project 1\Capture day 1\Session 1\Skater.ASF
:FULLY-SPECIFIED
:DEGREES
16
root -14.793 19.4481 -26.4791 7.82113 62.1715 1.81727
lowerback 8.7481 -3.27778 -2.54646
upperback -1.37138 -4.59703 0.891794
thorax -6.06491 -2.15665 2.9874
lowerneck -16.8574 -6.02353 -2.5476
upperneck 39.6546 -8.97238 3.27098
head 17.8361 -3.26806 0.267684
rclavicle 3.77365e-014 -4.4975e-015
rhumerus -37.1286 -4.0104 -81.0565
rradius 39.3698
rwrist -6.444
rhand -38.0338 -0.639198
rfingers 7.12502
rthumb -11.0719 -30.3272
lclavicle 3.77365e-014 -4.4975e-015
lhumerus -37.5949 -29.125 102.814
lradius 43.4679
lwrist 28.6662
lhand -18.4207 19.3003
lfingers 7.12502
lthumb 7.86434 49.134
rfemur -25.4091 -7.24626 18.8463
rtibia 44.5089
rfoot -37.9068 1.39865
rtoes -18.1415
lfemur -6.27949 -9.10143 -18.9246
ltibia 33.9954
lfoot -48.5545 9.44545
ltoes -21.0669
17
root -14.7625 19.4308 -26.1443 7.36762 61.2255 1.54167
lowerback 8.72284 -2.94831 -2.72057
upperback -1.34329 -4.18106 0.800736
thorax -6.04258 -1.94827 2.93298
lowerneck -17.0135 -6.02861 -2.50746
upperneck 39.6055 -8.99241 3.25182
head 17.8453 -3.27326 0.241854
rclavicle 2.67024e-014 -5.2181e-015
rhumerus -36.8289 -4.29247 -81.4071
rradius 38.6858
rwrist -5.90845
rhand -38.4348 -0.563221
rfingers 7.12502
rthumb -11.4586 -30.2301
lclavicle 2.67024e-014 -5.2181e-015
lhumerus -38.9129 -28.8105 102.235
lradius 44.394
lwrist 29.3064
lhand -20.6989 21.0019
lfingers 7.12502
lthumb 5.66507 50.9062
rfemur -25.4133 -8.08692 19.0322
rtibia 44.7338
rfoot -36.4027 3.09179
rtoes -16.2828
lfemur -5.97704 -8.2296 -18.807
ltibia 34.198
lfoot -48.1528 9.36255
ltoes -21.0529
18
root -14.7266 19.4356 -25.8283 6.90674 60.4464 1.12425
lowerback 8.72333 -2.72081 -2.47235
upperback -1.36934 -3.85794 0.685098
thorax -6.11558 -1.79791 2.63304
lowerneck -17.1976 -6.03619 -2.46432
upperneck 39.555 -8.99905 3.18493
head 17.856 -3.27973 0.195179
rclavicle 5.20878e-014 1.06847e-014
rhumerus -36.5169 -4.45462 -81.77
rradius 38.12
rwrist -5.50705
rhand -38.7385 -0.218731
rfingers 7.12502
rthumb -11.7515 -29.8691
lclavicle 5.20878e-014 1.06847e-014
lhumerus -40.223 -28.5045 101.65
lradius 45.438
lwrist 30.2341
lhand -21.5526 20.8883
lfingers 7.12502
lthumb 4.84082 50.813
rfemur -25.3989 -7.7872 19.241
rtibia 44.863
rfoot -35.6581 3.493
rtoes -15.1659
lfemur -5.8736 -7.66208 -18.6221
ltibia 34.4868
lfoot -47.8801 8.93568
ltoes -20.0108
19
root -14.6944 19.4381 -25.493 6.96257 59.671 1.62376
lowerback 8.89173 -2.49837 -2.97348
upperback -1.2897 -3.62952 0.517638
thorax -6.12155 -1.67113 2.71492
lowerneck -17.3573 -6.02297 -2.44632
upperneck 39.4867 -8.97123 3.13475
head 17.8517 -3.27554 0.168208
rclavicle -8.46077e-015 -1.11319e-014
rhumerus -36.1003 -4.65095 -82.0581
rradius 37.5889
rwrist -5.44269
rhand -38.494 0.247889
rfingers 7.12502
rthumb -11.5157 -29.4158
lclavicle -8.46077e-015 -1.11319e-014
lhumerus -41.4846 -28.0015 100.936
lradius 46.5156
lwrist 30.9352
lhand -22.2217 21.018
lfingers 7.12502
lthumb 4.19471 50.9564
rfemur -25.0127 -7.46384 18.9616
rtibia 44.9781
rfoot -35.418 3.43609
rtoes -15.0033
lfemur -5.44032 -7.0164 -18.8883
ltibia 34.7768
lfoot -47.288 8.77019
ltoes -19.6361
20
root -14.6634 19.4425 -25.1749 6.42344 58.9986 1.28591
lowerback 9.08322 -2.30704 -2.87877
upperback -1.26737 -3.3716 0.475716
thorax -6.23129 -1.54565 2.5934
lowerneck -17.5536 -6.01122 -2.44779
upperneck 39.4311 -8.92476 3.05266
head 17.862 -3.26986 0.132706
rclavicle -3.19546e-014 -1.51076e-014
rhumerus -35.7498 -4.60312 -82.4251
rradius 37.0484
rwrist -4.62086
rhand -38.8917 0.0979657
rfingers 7.12502
rthumb -11.8992 -29.5439
lclavicle -3.19546e-014 -1.51076e-014
lhumerus -42.678 -27.4932 100.269
lradius 47.5671
lwrist 31.6697
lhand -22.8474 21.108
lfingers 7.12502
lthumb 3.59045 51.0575
rfemur -24.7318 -7.06991 19.1328
rtibia 44.9927
rfoot -35.4133 3.31077
rtoes -15.1587
lfemur -5.23647 -6.65446 -18.7209
ltibia 35.1999
lfoot -46.8513 8.4856
ltoes -18.8199
21
root -14.6038 19.4519 -24.8465 6.00757 57.5467 0.765456
lowerback 8.52494 -1.89385 -2.71519
upperback -1.21375 -2.78833 0.427108
thorax -5.90317 -1.27372 2.34492
lowerneck -17.7393 -5.98275 -2.46734
upperneck 39.3662 -8.85408 2.99249
head 17.8664 -3.2548 0.115706
rclavicle 4.85904e-014 -5.96354e-016
rhumerus -35.2859 -4.52675 -82.6993
rradius 36.5732
rwrist -4.52741
rhand -35.6009 -1.16754
rfingers 7.12502
rthumb -8.72469 -30.9672
lclavicle 4.85904e-014 -5.96354e-016
lhumerus -43.7976 -26.8681 99.504
lradius 48.6302
lwrist 32.5315
lhand -23.0259 20.7482
lfingers 7.12502
lthumb 3.41807 50.7005
rfemur -24.6897 -6.29131 19.4143
rtibia 44.9514
rfoot -35.1189 3.2599
rtoes -15.5321
lfemur -5.14137 -5.44066 -18.441
ltibia 35.7303
lfoot -46.5099 7.53797
ltoes -17.5124
22
root -14.5693 19.4517 -24.5308 5.70144 56.707 0.651202
lowerback 8.61158 -1.65583 -2.72947
upperback -1.14967 -2.47717 0.365901
thorax -5.90485 -1.12147 2.25051
lowerneck -17.9497 -5.97718 -2.46214
upperneck 39.276 -8.82057 2.91463
head 17.8613 -3.25417 0.077887
rclavicle 6.51641e-014 -7.35503e-015
rhumerus -34.7907 -4.35574 -82.9976
rradius 36.1129
rwrist -4.32254
rhand -35.3458 -1.14069
rfingers 7.12502
rthumb -8.47848 -30.9505
lclavicle 6.51641e-014 -7.35503e-015
lhumerus -44.757 -26.2365 98.681
lradius 49.6222
lwrist 33.4994
lhand -23.1308 20.4256
lfingers 7.12502
lthumb 3.31677 50.3795
rfemur -24.3959 -5.76428 19.4689
rtibia 44.9112
rfoot -34.9905 3.18766
rtoes -15.6162
lfemur -5.09299 -4.98227 -18.3538
ltibia 36.5613
lfoot -46.1122 6.6136
ltoes -16.3992
23
root -14.5354 19.4629 -24.2137 5.2184 55.9105 0.335952
lowerback 8.68895 -1.47563 -2.73363
upperback -1.12591 -2.23469 0.442378
thorax -5.93424 -1.00026 2.30333
lowerneck -17.9135 -5.90447 -2.59778
upperneck 39.1297 -8.62362 2.83887
head 17.7624 -3.21558 0.107602
rclavicle -6.69656e-015 1.15295e-014
rhumerus -34.4716 -3.80531 -83.3097
rradius 35.7804
rwrist -3.83343
rhand -36.4699 -1.62692
rfingers 7.12502
rthumb -9.56316 -31.3899
lclavicle -6.69656e-015 1.15295e-014
lhumerus -45.8091 -25.4257 98.0497
lradius 50.6185
lwrist 34.1505
lhand -24.2632 21.1148
lfingers 7.12502
lthumb 2.2232 51.083
rfemur -24.0174 -5.36463 19.6799
rtibia 44.8066
rfoot -34.7183 3.34631
rtoes -15.2666
lfemur -5.18809 -4.01328 -17.9497
ltibia 37.6098
lfoot -45.2275 5.19743
ltoes -14.8441
24
root -14.4921 19.4661 -23.9062 5.05293 54.966 0.237052
lowerback 8.57547 -1.25968 -2.70255
upperback -1.09954 -1.93844 0.465221
thorax -5.85923 -0.856886 2.26638
lowerneck -17.951 -5.84145 -2.68756
upperneck 38.9662 -8.43812 2.70906
head 17.6668 -3.18179 0.0998828
rclavicle 2.89356e-014 -2.98177e-016
rhumerus -34.0553 -3.36626 -83.4903
rradius 35.4524
rwrist -3.69457
rhand -35.8882 -1.48173
rfingers 7.12502
rthumb -9.0019 -31.2697
lclavicle 2.89356e-014 -2.98177e-016
lhumerus -46.6448 -24.4834 97.2955
lradius 51.3954
lwrist 34.4937
lhand -25.5542 22.7406
lfingers 7.12502
lthumb 0.976307 52.7181
rfemur -23.8388 -4.99845 19.7473
rtibia 44.7293
rfoot -34.3302 3.69748
rtoes -14.7029
lfemur -5.48817 -3.5048 -17.8243
ltibia 38.9463
lfoot -44.7024 3.50956
ltoes -12.5864
25
root -14.4645 19.4686 -23.5994 4.51404 54.3897 -0.0459122
lowerback 8.87002 -1.13872 -2.6678
upperback -1.0539 -1.77458 0.569562
thorax -5.98552 -0.773369 2.34243
lowerneck -17.8959 -5.79224 -2.82012
upperneck 38.7871 -8.27177 2.61625
head 17.546 -3.15791 0.115799
rclavicle -1.64041e-013 8.34896e-015
rhumerus -33.6954 -2.78755 -83.6637
rradius 35.2104
rwrist -3.66246
rhand -35.6781 -1.58083
rfingers 7.12502
rthumb -8.79922 -31.3774
lclavicle -1.64041e-013 8.34896e-015
lhumerus -47.4362 -23.5591 96.5889
lradius 52.1181
lwrist 34.95
lhand -26.3033 23.0839
lfingers 7.12502
lthumb 0.252811 53.0635
rfemur -23.3555 -4.64793 19.9468
rtibia 44.5983
rfoot -34.0255 3.99944
rtoes -14.1875
lfemur -5.7912 -3.50536 -17.5665
ltibia 40.5245
lfoot -44.0332 2.14134
ltoes -10.7199
26
root -14.4318 19.4743 -23.2916 4.27278 53.7386 -0.105577
lowerback 8.94003 -1.05679 -2.73688
upperback -0.952312 -1.6672 0.668508
thorax -5.91964 -0.71871 2.47055
lowerneck -17.9521 -5.68095 -2.99508
upperneck 38.5766 -7.99512 2.52232
head 17.4353 -3.09574 0.157013
rclavicle -1.28048e-013 0
rhumerus -33.1742 -2.02962 -83.8456
rradius 35.011
rwrist -3.79475
rhand -36.2141 -1.47836
rfingers 7.12502
rthumb -9.31641 -31.2525
lclavicle -1.28048e-013 0
lhumerus -47.9927 -22.4304 95.7761
lradius 52.7489
lwrist 35.2578
lhand -26.4406 23.125
lfingers 7.12502
lthumb 0.120237 53.1047
rfemur -22.965 -4.03724 19.998
rtibia 44.4482
rfoot -34.0354 3.95896
rtoes -14.1971
lfemur -6.32073 -3.41075 -17.4222
ltibia 42.331
lfoot -43.2156 0.788918
ltoes -8.92376
27
root -14.3979 19.4801 -22.9878 4.11096 53.1069 -0.0834452
lowerback 9.03773 -0.926022 -2.78283
upperback -0.889367 -1.49711 0.709655
thorax -5.91697 -0.633383 2.51798
lowerneck -17.9654 -5.62475 -3.11118
upperneck 38.4075 -7.81145 2.39449
head 17.3352 -3.06499 0.155647
rclavicle 1.31695e-014 -4.79568e-015
rhumerus -32.7854 -1.25562 -84.0587
rradius 34.8826
rwrist -4.00316
rhand -36.0758 -1.50988
rfingers 7.12502
rthumb -9.18293 -31.2899
lclavicle 1.31695e-014 -4.79568e-015
lhumerus -48.5517 -21.4707 95.0458
lradius 53.2779
lwrist 35.4513
lhand -25.9647 22.0101
lfingers 7.12502
lthumb 0.579885 51.9891
rfemur -22.5669 -3.66848 19.9845
rtibia 44.2493
rfoot -33.7145 4.46523
rtoes -13.3563
lfemur -6.99306 -3.34241 -17.3289
ltibia 44.345
lfoot -42.2548 -0.542619
ltoes -6.77736
28
root -14.3721 19.4935 -22.6832 4.02125 52.65 -0.274646
lowerback 9.02127 -0.942142 -2.60494
upperback -0.914684 -1.49664 0.748018
thorax -5.93754 -0.637685 2.45789
lowerneck -17.9883 -5.50713 -3.22145
upperneck 38.2633 -7.55514 2.30792
head 17.2518 -2.9974 0.186071
rclavicle 9.65876e-014 -9.0944e-015
rhumerus -32.4689 -0.562543 -84.3321
rradius 34.9031
rwrist -4.06674
rhand -36.3176 -1.63522
rfingers 7.12502
rthumb -9.4163 -31.4049
lclavicle 9.65876e-014 -9.0944e-015
lhumerus -49.0147 -20.3449 94.1269
lradius 53.6845
lwrist 35.6649
lhand -25.7511 21.3867
lfingers 7.12502
lthumb 0.786106 51.365
rfemur -22.3555 -3.05523 20.1774
rtibia 43.8988
rfoot -33.6352 4.44766
rtoes -12.8708
lfemur -8.11574 -3.33346 -16.98
ltibia 46.4724
lfoot -40.8878 -1.41755
ltoes -5.1107
29
root -14.3458 19.5081 -22.3793 4.0785 52.231 -0.269073
lowerback 9.02987 -1.24992 -2.61889
upperback -0.817451 -1.89421 0.964787
thorax -5.80807 -0.832726 2.74517
lowerneck -18.4764 -5.11328 -3.67271
upperneck 38.1929 -6.72896 2.17797
head 17.3199 -2.75087 0.356705
rclavicle -1.35919e-014 7.20594e-016
rhumerus -31.7095 1.25118 -84.7062
rradius 34.8979
rwrist -4.51433
rhand -35.884 -1.70318
rfingers 7.12502
rthumb -8.99786 -31.4913
lclavicle -1.35919e-014 7.20594e-016
lhumerus -49.1076 -18.2481 93.0883
lradius 54.0239
lwrist 35.4631
lhand -26.048 21.7806
lfingers 7.12502
lthumb 0.499431 51.7598
rfemur -22.116 -2.56159 20.1952
rtibia 43.497
rfoot -33.4396 4.69205
rtoes -12.1656
lfemur -9.35003 -3.48179 -16.731
ltibia 48.7776
lfoot -39.39 -1.88172
ltoes -3.62885
